<svg id="Layer_1" data-name="Layer 1" xmlns="http://www.w3.org/2000/svg" viewBox="0 0 227 32"><defs><style>.cls-1{fill:none;}</style></defs><title>crestron logo-White BG</title><path d="M355.33,214.31a12.57,12.57,0,0,1-1.55.2c-11.13.64-16.08-3.09-16.65-7.24-.64-4.67,4.29-9.87,12.19-9.88,2.76,0,5.88.19,7.92,2.49a.2.2,0,0,1-.28.28c-3.44-3.12-12.82-2-14.94,1.34a4.45,4.45,0,0,0,.43,5.77h0a11.75,11.75,0,0,0,.91,1c2.15,2.07,5.44,3.83,12,5.67a.2.2,0,0,1,0,.39m-3.25-24.53a9.92,9.92,0,0,1,1.54-.21c23.68-1.36,19.37,17.09,4.46,17.13-2.77,0-5.88-.2-7.92-2.5a.19.19,0,0,1,.27-.28c3.45,3.13,12.83,2,14.95-1.33,1.73-2.69.66-4.82-1.34-6.76-2.15-2.06-5.45-3.82-12-5.67A.19.19,0,0,1,352.08,189.78Zm-19.5,6.87a2.23,2.23,0,0,1,.13-.34,1.77,1.77,0,0,1,.32-.5c4.89-5.79,14.31-5.77,21.54-3.55,7.05,2.16,12.71,6.73,8.9,10.19-1.42,1.28-3.33,2.56-8.09,2.33a.2.2,0,0,1,0-.4c7.23,0,9.4-4.73,5.23-7.16-3.73-2.19-8-2.79-12.28-2.86a46.31,46.31,0,0,0-15.51,2.55A.19.19,0,0,1,332.58,196.65Zm26.5,1c-3.67-3.27-13.75-3.15-21.05-1-6.71,2-11.57,5.85-6.29,10.58a17.08,17.08,0,0,0,1.38,1.1,6.67,6.67,0,0,0,.65.41,3.8,3.8,0,0,0,.49.22.21.21,0,0,0,.29-.22,12.67,12.67,0,0,1,0-1.51h0a8.75,8.75,0,0,1,3.44-6.6c2.22-1.86,5.35-3.48,10.89-4.07,7.14-.76,12.87,3.06,9.77,5.82a.19.19,0,1,0,.24.3C361.79,200.59,360.51,199,359.08,197.7Zm15.19-2a5.15,5.15,0,0,0-.65-.38l-.49-.22a.19.19,0,0,0-.28.19,9,9,0,0,1-3.44,8.12,17.87,17.87,0,0,1-9.14,3.84h0c-.55.09-1.13.17-1.73.23a16.89,16.89,0,0,1-5.11-.22c-4.29-.92-7-3.54-4.66-5.59a.2.2,0,0,0-.25-.31c-2.9,2.13-1.6,3.76-.19,5a13.3,13.3,0,0,0,1.31.89c4.38,2.33,13.19,2,19.75.12l.42-.13h0C376.79,205.11,381.53,200.83,374.27,195.71Zm.31,11.46a.2.2,0,0,1,.25.1.18.18,0,0,1,0,.16c0,.09-.06.2-.12.34a2.27,2.27,0,0,1-.33.51c-4.89,5.79-14.3,5.77-21.54,3.55a21.48,21.48,0,0,1-8.47-4.56h0c-1.85-1.86-2.34-3.89-.41-5.64,1.41-1.28,3.31-2.55,8.08-2.32a.2.2,0,1,1,0,.39c-7.22,0-9.38,4.73-5.22,7.17l.72.4a25.63,25.63,0,0,0,11.55,2.46,46,46,0,0,0,15.24-2.47h0Zm21.72-6.23c.23-2-.8-3.13-2.95-3.13-2.75,0-4.57,1.57-5.18,4.46s.54,4.44,3.29,4.44a4.21,4.21,0,0,0,4.16-2.68H403c-1.63,4.53-5.87,6.93-12.46,6.93-7.36,0-10.49-3-9.27-8.69s5.6-8.7,13-8.7c6.91,0,10.14,2.66,9.36,7.37Zm14.62.21h3.72c1.76,0,2.72-.32,3-1.51s-.63-1.45-2.51-1.45h-3.57Zm7.6-7.14c2.6,0,4.37.2,5.28.84a3.23,3.23,0,0,1,1.14,3.6,5.66,5.66,0,0,1-3.61,4.18c1.6.74,1.62,1.65,1.3,3.53-.38,2.37-.67,3.72,0,4.12l0,.25h-7.12c-.33-.8.15-2,.29-3.39.12-1.23-.38-1.65-2-1.65H410l-1.07,5h-6.5L405.93,194Zm4.8,16.52h18l.91-4.26H430.63l.46-2.17h9l.86-4.07h-9l.42-2h11.09l.86-4.05H426.83Zm18.87-5c-.69,3.5,2.17,5.54,8.44,5.54,7.59,0,11.6-1.74,12.48-5.88.58-2.72-.89-4.3-4.42-4.83L453,199.5c-1.6-.23-2.36-.44-2.2-1.17s1-1.1,2.54-1.1c2,0,2.95.55,2.89,1.58h7.44c.51-3.68-2.54-5.24-9.27-5.24-6.45,0-9.85,1.54-10.65,5.31-.59,2.77,1.07,4.44,4.93,4.92l4.65.59c1.5.19,2.16.6,2,1.31s-1.12,1.19-2.84,1.19-2.65-.53-2.58-1.4Zm24.14,5h6.41l2.62-12.34h6l.89-4.18H463.87l-.89,4.18h6Zm21.47-9.38h3.73c1.76,0,2.72-.32,3-1.51s-.63-1.45-2.51-1.45h-3.57Zm7.61-7.14c2.6,0,4.37.2,5.28.84a3.23,3.23,0,0,1,1.14,3.6,5.66,5.66,0,0,1-3.61,4.18c1.6.74,1.62,1.65,1.31,3.53-.39,2.37-.68,3.72,0,4.12l-.06.25h-7.11c-.34-.8.14-2,.28-3.39.12-1.23-.38-1.65-2-1.65h-3.82l-1.07,5h-6.5L482.82,194Zm5.37,8.26c1.22-5.72,5.6-8.7,13-8.7s10.49,3,9.27,8.7-5.6,8.69-13,8.69S499.57,208,500.78,202.27Zm6.66,0c-.62,2.88.54,4.44,3.28,4.44s4.57-1.56,5.18-4.44-.54-4.46-3.28-4.46S508.05,199.38,507.44,202.27Zm14.44,8.26h6l2.05-9.68,4.87,9.68H542L545.55,194h-6.2l-2,9.52L533,194H525.4Z" transform="translate(-325 -186)"/><path d="M543.55,208.57a2,2,0,1,1,2,2,1.94,1.94,0,0,1-2-2m2,1.64a1.63,1.63,0,1,0-1.59-1.64A1.59,1.59,0,0,0,545.53,210.21Zm-.41-.51h-.34v-2.25h.86c.52,0,.78.2.78.64a.58.58,0,0,1-.57.62l.64,1h-.39l-.59-1h-.39Zm.4-1.26c.29,0,.55,0,.55-.37s-.25-.33-.49-.33h-.46v.7Z" transform="translate(-325 -186)"/><rect class="cls-1" y="0.54" width="227" height="31"/><rect id="_Slice_" data-name="&lt;Slice&gt;" class="cls-1" width="227" height="32"/></svg>